<svg fill="none" height="16" viewBox="0 0 16 16" width="16" xmlns="http://www.w3.org/2000/svg">
    <path clip-rule="evenodd"
          d="m8 1.5c-1.38071 0-2.5 1.11929-2.5 2.5s1.11929 2.5 2.5 2.5 2.5-1.11929 2.5-2.5-1.11929-2.5-2.5-2.5zm-4 2.5c0-2.20914 1.79086-4 4-4 2.2091 0 4 1.79086 4 4s-1.7909 4-4 4c-2.20914 0-4-1.79086-4-4zm-2 9c0-2.0711 1.67893-3.75 3.75-3.75h4.5c2.0711 0 3.75 1.6789 3.75 3.75v2h-1.5v-2c0-1.2426-1.0074-2.25-2.25-2.25h-4.5c-1.24264 0-2.25 1.0074-2.25 2.25v2h-1.5z"
          fill="#4688ec" fill-rule="evenodd"/>
</svg>
