<svg fill="none" height="16" viewBox="0 0 16 16" width="16" xmlns="http://www.w3.org/2000/svg">
    <path clip-rule="evenodd"
          d="m0 4c0-1.10457.895431-2 2-2h12c1.1046 0 2 .89543 2 2v8c0 1.1046-.8954 2-2 2h-12c-1.104569 0-2-.8954-2-2zm2-.5c-.27614 0-.5.22386-.5.5v.52859l6.5 3.59939 6.5-3.59939v-.52859c0-.27614-.2239-.5-.5-.5zm12.5 2.74322-6.13667 3.39819c-.22605.12518-.50061.12518-.72666 0l-6.13667-3.39819v5.75678c0 .2761.22386.5.5.5h12c.2761 0 .5-.2239.5-.5z"
          fill="#e06c00" fill-rule="evenodd"/>
</svg>
