<svg fill="none" height="16" viewBox="0 0 16 16" width="16" xmlns="http://www.w3.org/2000/svg">
    <path clip-rule="evenodd"
          d="m3 1c-1.10457 0-2 .89543-2 2v10c0 1.1046.89543 2 2 2h10c1.1046 0 2-.8954 2-2v-10c0-1.10457-.8954-2-2-2zm-.5 2c0-.27614.22386-.5.5-.5h10c.2761 0 .5.22386.5.5v10c0 .2761-.2239.5-.5.5h-10c-.27614 0-.5-.2239-.5-.5zm5.5 7.25c.55228 0 1 .4477 1 1s-.44772 1-1 1-1-.4477-1-1 .44772-1 1-1zm-.74998-6.50389-.02779 5.3611 1.49998.00777.02779-5.36109z"
          fill="#e06c00" fill-rule="evenodd"/>
</svg>
