<svg fill="none" height="16" viewBox="0 0 16 16" width="16" xmlns="http://www.w3.org/2000/svg">
    <path clip-rule="evenodd"
          d="m1 3c0-1.10457.89543-2 2-2h10c1.1046 0 2 .89543 2 2v10c0 1.1046-.8954 2-2 2h-10c-1.10457 0-2-.8954-2-2zm2-.5c-.27614 0-.5.22386-.5.5v10c0 .2761.22386.5.5.5h10c.2761 0 .5-.2239.5-.5v-10c0-.27614-.2239-.5-.5-.5h-3.48695l-1.16667 3h1.90362c.2476 0 .4792.12219.619.32655.1398.20435.1697.46453.08.69528l-1.75 4.49997-1.398-.5436 1.35262-3.4782h-1.90362c-.24759 0-.47923-.12219-.61902-.32655-.13979-.20435-.16972-.46453-.07998-.69528l1.35262-3.47817z"
          fill="#f15b50" fill-rule="evenodd"/>
</svg>
