<svg fill="none" height="16" viewBox="0 0 16 16" width="16" xmlns="http://www.w3.org/2000/svg">
    <path clip-rule="evenodd"
          d="m.219686.219656c.187319-.187319.459561-.2619254.716205-.1962723l9.960709 2.5480963c.7676.19635 1.3469.8273 1.4771 1.60881l.6428 3.85679c.26-.08491.5572-.02405.7638.18258l2 2.00004c.2929.2928.2929.7677 0 1.0606l-4.5 4.5c-.2928.2929-.7677.2929-1.0606 0l-2.00001-2c-.20663-.2066-.26749-.5038-.18258-.7638l-3.85679-.6428c-.78151-.1302-1.41246-.7095-1.60881-1.4771l-2.5480957-9.960739c-.0656532-.256644.0089532-.528887.1962717-.716205zm9.590994 13.030344.93932.9393 3.4394-3.4393-.9394-.93935zm1.88612-4.00743-2.4542 2.45413-4.81569-.8026c-.19537-.0325-.35311-.1774-.4022-.3693l-1.86983-7.30929 3.5034 3.5034c-.1019.23997-.15826.50394-.15826.78108 0 1.10457.89543 2 2 2s2-.89543 2-2-.89543-2-2-2c-.27714 0-.54111.05636-.78108.15826l-3.5034-3.5034 7.30936 1.86983c.1919.04909.3367.20683.3693.4022zm-3.69678-1.74258c0-.27615-.22386-.5-.5-.5-.27615 0-.5.22385-.5.5 0 .27614.22385.5.5.5.27614 0 .5-.22386.5-.5z"
          fill="#4688ec" fill-rule="evenodd"/>
</svg>
