<svg width="16" height="16" viewBox="0 0 16 16" fill="none" xmlns="http://www.w3.org/2000/svg">
<path fill-rule="evenodd" clip-rule="evenodd" d="M7.58727 5.87622L2.08727 2.25122L2.91274 0.998779L8 4.35175L13.0873 0.998779L13.9127 2.25122L8.41273 5.87622C8.16233 6.04126 7.83767 6.04126 7.58727 5.87622ZM7.58727 10.3762L2.08727 6.75122L2.91274 5.49878L8 8.85175L13.0873 5.49878L13.9127 6.75122L8.41273 10.3762C8.16233 10.5413 7.83767 10.5413 7.58727 10.3762ZM7.58727 14.8762L2.08727 11.2512L2.91274 9.99878L8 13.3517L13.0873 9.99878L13.9127 11.2512L8.41273 14.8762C8.16233 15.0413 7.83767 15.0413 7.58727 14.8762Z" fill="#1D7AFC"/>
</svg>
